<?xml version="1.0" encoding="UTF-8"?>
<svg id="_图层_1" data-name="图层_1" xmlns="http://www.w3.org/2000/svg" xmlns:xlink="http://www.w3.org/1999/xlink" version="1.1" viewBox="0 0 1916.1 1955">
  <!-- Generator: Adobe Illustrator 29.0.1, SVG Export Plug-In . SVG Version: 2.1.0 Build 192)  -->
  <defs>
    <style>
      .st0 {
        fill: none;
      }

      .st1 {
        fill-opacity: .9;
      }

      .st1, .st2, .st3, .st4, .st5, .st6, .st7 {
        fill-rule: evenodd;
        stroke: #fff;
        stroke-linejoin: round;
        stroke-width: 6.9px;
      }

      .st1, .st5, .st6, .st7 {
        fill: #f7e7d8;
      }

      .st8 {
        font-size: 73px;
      }

      .st8, .st9 {
        font-family: Arial-BoldMT, Arial;
        font-weight: 700;
        isolation: isolate;
      }

      .st2 {
        fill: #cbdfba;
      }

      .st3 {
        fill: #fbda83;
      }

      .st4 {
        fill: #dce3f0;
      }

      .st5 {
        fill-opacity: .5;
      }

      .st6 {
        fill-opacity: .7;
      }

      .st9 {
        font-size: 71px;
      }

      .st10 {
        clip-path: url(#clippath);
      }
    </style>
    <clipPath id="clippath">
      <rect class="st0" x="-511.2" y="0" width="2933" height="1955"/>
    </clipPath>
  </defs>
  <g class="st10">
    <g>
      <path class="st4" d="M955.6,516.3c254.7,0,461.2,206.5,461.2,461.2h-461.2v-461.2Z"/>
      <path class="st2" d="M1416.8,977.5c0,254.7-206.5,461.2-461.2,461.2v-461.2h461.2Z"/>
      <path class="st3" d="M955.6,1438.7c-254.7,0-461.2-206.5-461.2-461.2h461.2v461.2Z"/>
      <path class="st7" d="M494.3,977.5c0-254.7,206.5-461.2,461.2-461.2v461.2h-461.2Z"/>
      <path class="st4" d="M955.6,50.1c322.7,0,622.1,167.7,790.7,442.8l-395.4,242.3c-84.3-137.6-234-221.4-395.4-221.4V50.1Z"/>
      <path class="st4" d="M1746.3,493c38.1,62.2,68.7,128.6,91.3,198l-441,143.3c-11.3-34.7-26.6-67.9-45.6-99l395.4-242.3Z"/>
      <path class="st4" d="M1837.6,690.9c15,46.2,26.4,93.5,34,141.5l-458,72.5c-3.8-24-9.5-47.6-17-70.8l441-143.3Z"/>
      <path class="st4" d="M1871.5,832.4c7.6,48,11.4,96.5,11.4,145.1h-463.7c0-24.3-1.9-48.6-5.7-72.5l458-72.5Z"/>
      <path class="st2" d="M1882.9,977.5c0,343.5-189.8,658.8-493.4,819.6l-217-409.8c151.8-80.4,246.7-238,246.7-409.8h463.7Z"/>
      <path class="st2" d="M1389.5,1797.1c-133.7,70.8-282.7,107.8-433.9,107.8v-463.7c75.6,0,150.1-18.5,217-53.9l217,409.8Z"/>
      <path class="st3" d="M955.6,1904.9c-246,0-481.8-97.7-655.7-271.6l327.9-327.9c87,87,204.9,135.8,327.9,135.8v463.7Z"/>
      <path class="st3" d="M299.8,1633.2c-113.9-113.9-196.2-255.6-238.8-411l447.2-122.3c21.3,77.7,62.4,148.6,119.4,205.5l-327.9,327.9Z"/>
      <path class="st3" d="M61.1,1222.2c-21.8-79.7-32.9-162-32.9-244.7h463.7c0,41.3,5.5,82.5,16.4,122.3l-447.2,122.3Z"/>
      <path class="st7" d="M28.2,977.5c0-166.1,44.6-329.1,129.1-472.1l399.1,236c-42.3,71.5-64.6,153-64.6,236H28.2Z"/>
      <path class="st1" d="M157.4,505.4c39.6-67,87.5-128.7,142.5-183.7l327.9,327.9c-27.5,27.5-51.4,58.4-71.2,91.8l-399.1-236Z"/>
      <path class="st6" d="M299.8,321.8c34.3-34.4,71.3-66,110.6-94.5l272.6,375.1c-19.7,14.3-38.2,30.1-55.3,47.3l-327.9-327.9Z"/>
      <path class="st5" d="M410.5,227.2C568.9,112.1,759.7,50.1,955.6,50.1v463.7c-97.9,0-193.3,31-272.5,88.6L410.5,227.2Z"/>
      <text class="st8" transform="translate(1196.2 488) rotate(-38.2)"><tspan x="0" y="0">Outdoor</tspan></text>
      <text class="st8" transform="translate(1421.3 310) rotate(-38.2)"><tspan x="0" y="0">-</tspan></text>
      <text class="st8" transform="translate(1250.7 557) rotate(-38.2)"><tspan x="0" y="0">Urban</tspan></text>
      <text class="st9" transform="translate(1482.9 715) rotate(-31)"><tspan x="0" y="0">Outdoor</tspan></text>
      <text class="st9" transform="translate(1720.6 572) rotate(-31)"><tspan x="0" y="0">-</tspan></text>
      <text class="st9" transform="translate(1527.1 789) rotate(-31)"><tspan x="0" y="0">Natural</tspan></text>
      <text class="st8" transform="translate(1555.7 859) rotate(-16.7)"><tspan x="0" y="0">Indoor</tspan></text>
      <text class="st8" transform="translate(1575.3 952) rotate(-5.2)"><tspan x="0" y="0">Mixed</tspan></text>
      <text class="st8" transform="translate(1451.5 1315)"><tspan x="0" y="0">First</tspan></text>
      <text class="st8" transform="translate(1622.2 1315)"><tspan x="0" y="0">-</tspan></text>
      <text class="st8" transform="translate(1451.5 1403)"><tspan x="0" y="0">Person</tspan></text>
      <text class="st8" transform="translate(1017.1 1659)"><tspan x="0" y="0">Third</tspan></text>
      <text class="st8" transform="translate(1209.6 1659)"><tspan x="0" y="0">-</tspan></text>
      <text class="st8" transform="translate(1017.1 1747)"><tspan x="0" y="0">Person</tspan></text>
      <text class="st8" transform="translate(613.1 1734) rotate(-57.1)"><tspan x="0" y="0">Ancient</tspan></text>
      <text class="st8" transform="translate(251.1 1427) rotate(-34.4)"><tspan x="0" y="0">Modern</tspan></text>
      <text class="st8" transform="translate(95.8 1122) rotate(-10.1)"><tspan x="0" y="0">Futuristic</tspan></text>
      <text class="st8" transform="translate(176.2 818) rotate(12.5)"><tspan x="0" y="0">Terrain</tspan></text>
      <text class="st8" transform="translate(309.1 497) rotate(41)"><tspan x="0" y="0">Building</tspan></text>
      <text class="st8" transform="translate(421.3 398) rotate(47.5)"><tspan x="0" y="0">Vehicle</tspan></text>
      <text class="st8" transform="translate(665.7 275) rotate(64.3)"><tspan x="0" y="0">Mixed</tspan></text>
      <text class="st8" transform="translate(983.1 839)"><tspan x="0" y="0">Scene </tspan></text>
      <text class="st8" transform="translate(983.1 927)"><tspan x="0" y="0">Type</tspan></text>
      <text class="st8" transform="translate(976.6 1064)"><tspan x="0" y="0">Camera </tspan></text>
      <text class="st8" transform="translate(976.6 1152)"><tspan x="0" y="0">Perspective</tspan></text>
      <text class="st8" transform="translate(612.6 832)"><tspan x="0" y="0">Dominant</tspan></text>
      <text class="st8" transform="translate(612.6 920)"><tspan x="0" y="0">Object</tspan></text>
      <text class="st8" transform="translate(602.9 1072)"><tspan x="0" y="0">Historical </tspan></text>
      <text class="st8" transform="translate(602.9 1160)"><tspan x="0" y="0">Era</tspan></text>
    </g>
  </g>
</svg>