<?xml version="1.0" encoding="UTF-8"?>
<svg id="_图层_1" data-name="图层_1" xmlns="http://www.w3.org/2000/svg" xmlns:xlink="http://www.w3.org/1999/xlink" version="1.1" viewBox="0 0 1891.8 1955">
  <!-- Generator: Adobe Illustrator 29.0.1, SVG Export Plug-In . SVG Version: 2.1.0 Build 192)  -->
  <defs>
    <style>
      .st0 {
        fill: none;
      }

      .st1 {
        font-size: 32px;
      }

      .st1, .st2, .st3 {
        font-family: Arial-BoldMT, Arial;
        font-weight: 700;
        isolation: isolate;
      }

      .st2 {
        font-size: 73px;
      }

      .st4 {
        fill: #cbdfba;
      }

      .st4, .st5, .st6, .st7 {
        fill-rule: evenodd;
        stroke: #fff;
        stroke-linejoin: round;
        stroke-width: 6.9px;
      }

      .st5 {
        fill: #fbda83;
      }

      .st6 {
        fill: #dce3f0;
      }

      .st3 {
        font-size: 64px;
      }

      .st7 {
        fill: #f7e7d8;
      }

      .st8 {
        clip-path: url(#clippath);
      }
    </style>
    <clipPath id="clippath">
      <rect class="st0" x="-522" y="0" width="2933" height="1955"/>
    </clipPath>
  </defs>
  <g class="st8">
    <g>
      <path class="st6" d="M1391.4,1097.4c-12.5,46.5-32.1,90.7-58.2,131.2l-389.3-251.1,447.4,119.9Z"/>
      <path class="st4" d="M1333.3,1228.6c-138.7,215-425.4,276.9-640.3,138.2-56.5-36.5-104.4-84.8-140.4-141.6l391.5-247.7,389.3,251.1Z"/>
      <path class="st5" d="M552.5,1225.2c-18.2-28.7-33.1-59.4-44.6-91.4l436.1-156.3-391.5,247.7Z"/>
      <path class="st7" d="M507.9,1133.7c-86.3-240.8,39-506,279.8-592.3,240.8-86.3,506,39,592.3,279.8,31.8,88.7,35.8,185.1,11.4,276.1l-447.4-119.9-436.1,156.2Z"/>
      <path class="st6" d="M1840.2,1217.5c-24.9,93-64.2,181.7-116.4,262.6l-389.7-251.3c26.1-40.5,45.7-84.8,58.2-131.3l447.9,120Z"/>
      <path class="st4" d="M1723.8,1480.1c-111.5,172.8-277.2,303.7-471.2,372l-154.1-437.3c97-34.2,179.9-99.6,235.6-186l389.7,251.3Z"/>
      <path class="st4" d="M1252.6,1852.2c-131,46.2-270.8,62.3-408.9,47.2l50.4-460.9c69.1,7.5,138.9-.5,204.4-23.6l154.1,437.3Z"/>
      <path class="st4" d="M843.7,1899.4c-280.7-30.7-532-187.5-683-426.1l391.8-247.9c75.5,119.3,201.2,197.7,341.5,213l-50.4,460.9Z"/>
      <path class="st5" d="M160.8,1473.3c-36.4-57.5-66.3-118.9-89.3-183l436.5-156.4c11.5,32,26.5,62.7,44.7,91.5l-391.8,247.9Z"/>
      <path class="st7" d="M71.4,1290.3c-15.5-43.4-27.8-87.9-36.8-133.1l454.9-89.8c4.5,22.6,10.6,44.9,18.4,66.6l-436.5,156.4Z"/>
      <path class="st7" d="M34.7,1157.2c-.9-4.5-1.8-9.1-2.6-13.7l456.2-83c.4,2.3.8,4.6,1.3,6.8l-454.9,89.8Z"/>
      <path class="st7" d="M32.1,1143.5c-3.4-18.6-6.2-37.2-8.4-56l460.4-55c1.1,9.4,2.5,18.7,4.2,28l-456.2,83Z"/>
      <path class="st7" d="M23.6,1087.5c-5.7-47.4-7.7-95.2-6-142.9l463.4,16.4c-.8,23.9.2,47.7,3,71.5l-460.4,55Z"/>
      <path class="st7" d="M17.7,944.6c2.4-67.7,12.2-135,29.3-200.6l448.8,116.7c-8.5,32.8-13.4,66.4-14.6,100.3l-463.4-16.4Z"/>
      <path class="st7" d="M47,744.1C175.9,248.4,682.2-48.9,1177.9,80c87.2,22.7,170.6,57.9,247.6,104.7l-240.5,396.4c-218.9-132.8-504.1-63-636.9,155.9-23.4,38.5-41,80.2-52.3,123.8l-448.8-116.7Z"/>
      <path class="st7" d="M1425.5,184.7c352.4,213.8,521.4,634.7,414.7,1032.9l-447.9-120c53.3-199.1-31.1-409.5-207.4-516.4l240.5-396.4Z"/>
      <text class="st2" transform="translate(1427.3 1175) rotate(23.3)"><tspan x="0" y="0">OmniWorld</tspan></text>
      <text class="st2" transform="translate(1463.3 1286) rotate(23.3)"><tspan x="0" y="0">-</tspan></text>
      <text class="st2" transform="translate(1504.3 1304) rotate(23.3)"><tspan x="0" y="0">Game</tspan></text>
      <text class="st2" transform="translate(1276.6 1547)"><tspan x="0" y="0">AgiBot</tspan></text>
      <text class="st3" transform="translate(1079.2 1057) rotate(24.4)"><tspan x="0" y="0">Simulator</tspan></text>
      <text class="st3" transform="translate(551.3 1186) rotate(-25.3)"><tspan x="0" y="0">Internet</tspan></text>
      <text class="st2" transform="translate(850.9 1244)"><tspan x="0" y="0">Robot</tspan></text>
      <text class="st2" transform="translate(820.8 804)"><tspan x="0" y="0">Human</tspan></text>
      <text class="st2" transform="translate(906.2 1710)"><tspan x="0" y="0">DROID</tspan></text>
      <text class="st2" transform="translate(474.8 1578)"><tspan x="0" y="0">RH20T</tspan></text>
      <text class="st2" transform="translate(183 1370) rotate(-24)"><tspan x="0" y="0">CityWalk</tspan></text>
      <text class="st3" transform="translate(59.5 1234) rotate(-14.1)"><tspan x="0" y="0">RH20T</tspan></text>
      <text class="st3" transform="translate(266.2 1182) rotate(-14.1)"><tspan x="0" y="0">-</tspan></text>
      <text class="st3" transform="translate(304 1172) rotate(-14.1)"><tspan x="0" y="0">Human</tspan></text>
      <text class="st1" transform="translate(70.1 1117) rotate(-8.2)"><tspan x="0" y="0">Epic</tspan></text>
      <text class="st1" transform="translate(132.5 1108) rotate(-8.2)"><tspan x="0" y="0">-</tspan></text>
      <text class="st1" transform="translate(151.8 1106) rotate(-8.2)"><tspan x="0" y="0">Kitchens</tspan></text>
      <text class="st3" transform="translate(65.1 1029)"><tspan x="0" y="0">Ego</tspan></text>
      <text class="st3" transform="translate(172.9 1029)"><tspan x="0" y="0">-</tspan></text>
      <text class="st3" transform="translate(211.8 1029)"><tspan x="0" y="0">Exo4D</tspan></text>
      <text class="st2" transform="translate(59.9 871) rotate(7.5)"><tspan x="0" y="0">HoloAssist</tspan></text>
      <text class="st2" transform="translate(459 417)"><tspan x="0" y="0">Assembly101</tspan></text>
      <text class="st2" transform="translate(1508.5 804)"><tspan x="0" y="0">EgoDex</tspan></text>
    </g>
  </g>
</svg>